<mxfile host="Electron" modified="2024-06-08T16:16:43.745Z" agent="Mozilla/5.0 (Windows NT 10.0; Win64; x64) AppleWebKit/537.36 (KHTML, like Gecko) draw.io/24.4.13 Chrome/124.0.6367.207 Electron/30.0.6 Safari/537.36" etag="yeBuHdmxyd4OVvIvYp_a" version="24.4.13" type="device">
  <diagram name="Page-1" id="KdsgBJqx7en7QWuO3uST">
    <mxGraphModel dx="2440" dy="1465" grid="1" gridSize="10" guides="1" tooltips="1" connect="1" arrows="1" fold="1" page="1" pageScale="1" pageWidth="850" pageHeight="1100" math="0" shadow="0">
      <root>
        <mxCell id="0" />
        <mxCell id="1" parent="0" />
        <mxCell id="Ifud_fRms5dQcdxo2CcA-3" style="edgeStyle=orthogonalEdgeStyle;rounded=0;orthogonalLoop=1;jettySize=auto;html=1;entryX=0;entryY=0.5;entryDx=0;entryDy=0;strokeWidth=3;" edge="1" parent="1" source="Ifud_fRms5dQcdxo2CcA-1" target="Ifud_fRms5dQcdxo2CcA-2">
          <mxGeometry relative="1" as="geometry" />
        </mxCell>
        <mxCell id="Ifud_fRms5dQcdxo2CcA-5" style="edgeStyle=orthogonalEdgeStyle;rounded=0;orthogonalLoop=1;jettySize=auto;html=1;entryX=0;entryY=0.5;entryDx=0;entryDy=0;strokeWidth=3;" edge="1" parent="1" source="Ifud_fRms5dQcdxo2CcA-1" target="Ifud_fRms5dQcdxo2CcA-4">
          <mxGeometry relative="1" as="geometry" />
        </mxCell>
        <mxCell id="Ifud_fRms5dQcdxo2CcA-7" style="edgeStyle=orthogonalEdgeStyle;rounded=0;orthogonalLoop=1;jettySize=auto;html=1;entryX=0;entryY=0.5;entryDx=0;entryDy=0;strokeWidth=3;" edge="1" parent="1" source="Ifud_fRms5dQcdxo2CcA-1" target="Ifud_fRms5dQcdxo2CcA-6">
          <mxGeometry relative="1" as="geometry" />
        </mxCell>
        <mxCell id="Ifud_fRms5dQcdxo2CcA-1" value="&lt;font style=&quot;font-size: 36px;&quot;&gt;FuncDef&lt;/font&gt;" style="rounded=1;whiteSpace=wrap;html=1;" vertex="1" parent="1">
          <mxGeometry width="480" height="120" as="geometry" />
        </mxCell>
        <mxCell id="Ifud_fRms5dQcdxo2CcA-2" value="&lt;font style=&quot;font-size: 36px;&quot;&gt;name: main&lt;/font&gt;" style="rounded=1;whiteSpace=wrap;html=1;" vertex="1" parent="1">
          <mxGeometry x="280" y="160" width="480" height="120" as="geometry" />
        </mxCell>
        <mxCell id="Ifud_fRms5dQcdxo2CcA-4" value="&lt;span style=&quot;font-size: 36px;&quot;&gt;parameters: None&lt;/span&gt;" style="rounded=1;whiteSpace=wrap;html=1;" vertex="1" parent="1">
          <mxGeometry x="280" y="320" width="480" height="120" as="geometry" />
        </mxCell>
        <mxCell id="Ifud_fRms5dQcdxo2CcA-9" style="edgeStyle=orthogonalEdgeStyle;rounded=0;orthogonalLoop=1;jettySize=auto;html=1;entryX=0;entryY=0.5;entryDx=0;entryDy=0;strokeWidth=3;" edge="1" parent="1" source="Ifud_fRms5dQcdxo2CcA-6" target="Ifud_fRms5dQcdxo2CcA-8">
          <mxGeometry relative="1" as="geometry" />
        </mxCell>
        <mxCell id="Ifud_fRms5dQcdxo2CcA-6" value="&lt;font style=&quot;font-size: 36px;&quot;&gt;body: Vec&amp;lt;Stmt&amp;gt;&lt;/font&gt;" style="rounded=1;whiteSpace=wrap;html=1;" vertex="1" parent="1">
          <mxGeometry x="280" y="480" width="480" height="120" as="geometry" />
        </mxCell>
        <mxCell id="Ifud_fRms5dQcdxo2CcA-11" style="edgeStyle=orthogonalEdgeStyle;rounded=0;orthogonalLoop=1;jettySize=auto;html=1;strokeWidth=3;" edge="1" parent="1" source="Ifud_fRms5dQcdxo2CcA-8">
          <mxGeometry relative="1" as="geometry">
            <mxPoint x="800" y="840" as="targetPoint" />
          </mxGeometry>
        </mxCell>
        <mxCell id="Ifud_fRms5dQcdxo2CcA-8" value="&lt;span style=&quot;font-size: 36px;&quot;&gt;LetStmt&lt;/span&gt;" style="rounded=1;whiteSpace=wrap;html=1;" vertex="1" parent="1">
          <mxGeometry x="560" y="640" width="480" height="120" as="geometry" />
        </mxCell>
      </root>
    </mxGraphModel>
  </diagram>
</mxfile>
